<svg xmlns="http://www.w3.org/2000/svg" width="250" height="250" viewBox="0 0 250 250">
<!-- SVG created with Arrow, by QuiverAI (https://quiver.ai) -->
  <path d="m244.7 62.6v138.2c0 24.16-19.89 43.86-43.27 43.86h-143.4c-14.32 0-27.05-7.9-34.86-19.25-10.27-7.55-17.21-20.05-17.21-33.57v-140.6c0-24.4 20.3-45.47 45.14-45.47h135.2c14.37 0 27.45 7.59 36.63 18.93 12.37 7.87 21.75 21.17 21.75 37.85z" fill="#060606"/>
  <path d="m189 11.12h-137.8c-22.45 0-40.02 19.07-40.02 41.24v138.2c0 21.33 17.23 37.03 36.9 37.03h143.4c20.24 0 36.81-17 36.81-37.55v-137.5c0-21.77-18.45-41.46-39.22-41.46z" fill="#F2EFE2"/>
  <path d="m195.8 23.86 4.3 13.43 11.73 3.82-11.84 4.07-4.12 12.02-4.13-12.05-11.47-3.93 11.53-4.01 4-13.35z" fill="#1544C4"/>
  <path d="m159.5 199.5h-92.82c-9.18 0-15.89-9.14-15.89-15.15v-128.2c0-9.16 7.96-16.02 15.41-16.02h93.41c9.05 0 15.34 8.66 15.34 15.62v53.53c0 0.99-0.63 1.02-1.02 1.02h-2.93c-0.71 0-1.03-0.43-1.03-1.15v-52.9c0-7.2-6.24-10.91-10.2-10.91h-92.91c-6.66 0-10.66 6.45-10.66 11.19v127c0 5.61 5.08 11.1 10.4 11.1h92.62c5.93 0 10.8-6.24 10.8-10.62v-55.41c0-1.09 0.61-1.43 1.59-1.43h2.39c0.82 0 1.19 0.44 1.19 1.28v55.45c0 9.09-8.26 15.66-15.69 15.66z" fill="#060606"/>
  <path d="m153.8 87.37h-81.61c-1.61 0-2.46-0.78-2.46-2.01 0-1.3 0.85-2 1.98-2h81.59c1.44 0 2.23 0.82 2.23 2 0 1.26-0.79 2.01-1.73 2.01z" fill="#060606"/>
  <path d="m119.7 70.61h-47.82c-1.44 0-2.15-1.05-2.15-2.21 0-1.23 0.85-1.97 1.65-1.97h48.32c1.38 0 2.09 1.15 2.09 2.11 0 1.24-0.99 2.07-2.09 2.07z" fill="#060606"/>
  <path d="m161.2 93.25h-96.22v16.67h96.22v-16.67z" fill="#CC261A"/>
  <path d="m153.5 103.4h-81.25c-1.61 0-2.46-0.99-2.46-2.11 0-1.26 0.95-1.91 2.05-1.91h81.52c1.44 0 2.23 0.65 2.23 1.95 0 1.37-0.85 2.07-2.09 2.07z" fill="#060606"/>
  <path d="m153.5 136.2h-81.66c-1.44 0-2.15-1.05-2.15-2.2 0-1.24 0.85-1.98 1.8-1.98h81.8c1.45 0 2.24 0.82 2.24 2.01 0 1.37-0.85 2.17-2.03 2.17z" fill="#060606"/>
  <path d="m153.5 152.9h-60.99c-1.44 0-2.16-0.92-2.16-2.19 0-1.26 0.86-2.01 1.89-2.01h61.26c1.44 0 2.09 0.82 2.09 2.01 0 1.37-0.85 2.19-2.09 2.19z" fill="#060606"/>
  <path d="m124.2 169.3h-52.43c-1.44 0-2.15-0.95-2.15-2.04 0-1.26 0.85-2.01 1.87-2.01h52.64c1.45 0 2.16 0.85 2.16 2.01 0 1.26-0.85 2.04-2.09 2.04z" fill="#060606"/>
  <path d="m147 159.6h-8.67v28.37h8.67v-28.37z" fill="#CC261A"/>
  <path d="m163.6 175.1h-14.24v12.83h14.24v-12.83z" fill="#F7CB2B"/>
  <path d="m156.7 172.7c5.07 0 6.87-4.08 6.87-6.01 0-4.54-3.61-7.13-6.73-7.13-4.6 0-7.44 3.26-7.44 6.87 0 4.17 3.16 6.27 7.3 6.27z" fill="#1544C4"/>
  <path d="m202.7 117.1-15.19-13.05c-1.36-1.19-2.24-1.02-3.21-0.28-1.39 1.1-1.35 3.53-0.1 4.58l8.54 8.14h-53.08c-2.23 0-3.25 0.89-3.21 2.49 0.05 1.84 0.9 2.59 2.83 2.59h53.34l-8.56 8.14c-1.11 1.06-1.42 3.2 0.21 4.29 1.27 0.85 2.68 0.32 3.57-0.5l14.65-12.75c1.52-1.37 1.35-2.66 0.21-3.65z" fill="#060606"/>
  <path d="m83.31 148.6h-4.1v-4.28c0-1.09-0.77-1.61-1.89-1.61-1.04 0-1.8 0.59-1.8 1.51v4.38h-4.73c-1.02 0-1.67 0.98-1.67 1.7 0 1.05 0.79 1.8 1.59 1.8h4.74v4.31c0 0.99 0.98 1.51 1.77 1.51 1.17 0 1.89-0.82 1.89-1.64v-4.18h4.12c1.24 0 1.66-1.19 1.66-1.91 0-0.92-0.72-1.59-1.58-1.59z" fill="#1A7A44"/>
</svg>